<?xml version="1.0" encoding="utf-8"?>
<!-- Generator: Adobe Illustrator 19.1.0, SVG Export Plug-In . SVG Version: 6.00 Build 0)  -->
<svg version="1.1" id="Layer_1" xmlns="http://www.w3.org/2000/svg" xmlns:xlink="http://www.w3.org/1999/xlink" x="0px" y="0px"
	 viewBox="400 91.5 350 619" style="enable-background:new 400 91.5 350 619;" xml:space="preserve">
<style type="text/css">
	.st0{stroke:#000000;}
	.st1{fill:#FFFFFF;stroke:#CCCCCC;stroke-width:0.5;}
	.st2{fill:#FFFFFF;stroke:#CCCCCC;}
</style>
<g id="Layer_2">
	<g>
		<path class="st0" d="M681.7,159.7c-0.3-1.6-2.3-3.1-2.3-4.6c0-2.2-0.4-4.1-2.2-5.4c-0.5-0.4-1.9-1.8-2.6-1.1
			c-0.4,0-0.4,0.7-1.1,0.7c-0.4,0-1-0.1-1.4,0c-0.7,0.1-1.4,1-1.9,0.6c-1.1-0.8-2-0.3-2.4,0.9c-0.4,1.3-0.1,3.5-0.3,4.6
			c-1,0.6-0.1,4.2-0.4,5.3c-0.8,3.6-3.6,6.3-6.4,8c-1.9,1.1-3.1,1.3-4.6,2.9c-1,1.1-0.2,3-1.1,3.8c-2,1.6-2.2-0.7-4.5-0.9
			c-2.5-1.1-3.4,1.8-4.3,3.1c-1.3,1.9-0.9-0.9-2.6-1c-1.7-0.5-2.1,1.2-3.6-0.1c-1.4-1.2-2.4,0.6-3.8,0.6c-1.6,0-4.3-1.2-5.9-1.6
			c-0.9-0.2-1.6-1-2.6-1.2c-1.3-0.4-2.9-0.2-4.3-0.4c-1.8-0.1-5.6,1.3-6.3-0.6c2-0.6,5.7-5.8,6.1-7.8c0.2-1-0.5-1.6-0.4-2.6
			c0.1-0.9,0.6-1.8,1-2.6c0.6-1.6,1.6-2.1,3.1-3.3c0.6-0.6,0.2-1.5,0.8-2.4c0.4-0.6,0.4-1.1,0.8-1.6c0.8-0.6,4.1-4.2,2.5-5.4
			c-0.3-0.8-2.1-3.4-2.9-4c-1.4-1.1-3.5-2.1-5.3-2.6c-0.7-0.4-1.9,0.2-2.4-0.4c-0.6-0.9-1-1.2-2-1.6c-1.9-0.6-3.2-0.4-4.9-1.6
			c-1.6-1.2-3.4-2.1-5.1-3c-1.4-0.7-2.4-2.3-3.7-3.1c-1.6-1-4-3.5-5.8-3.9c-0.6-0.4-1.7,0.4-2.4,0.4c-1.4-0.1-2.5-0.6-3.8-1
			c-0.7-0.2-1-1-1.7-1.1c-1-0.2-2.2-0.2-3.1-0.6c-2.1-0.8-2.1-2.8-4-4.1c-1-0.7-1.9-1.2-3-1.7s-1.5-1.8-2.8-2
			c-0.9-0.1-4.2-3.7-4.5-4.6c-0.4-1.1-1.5-1.6-1.9-2.6c-0.4-1.1-0.7-2.8-1.7-3.5c-2-1.3-3.6-2.9-5.5-4.3c-1.7-1.2-0.5-2.9-3.1-2.9
			c-3.9,0-7.7,0-11.6,0.1c-3.1,0-3.2,2.4-4.4,5.1c-0.8,1.9-2.4,2.9-2.5,5.1c-0.6-0.6-1.6-3.4-1.8-4.4c-0.3-2.4-1-2.7-3.1-3.4
			c-4.4-1.4-8.1-1.1-12.8-1c-1.5-0.1-6.8-7.6-7.8-3.6c-0.7,2.7-0.4,3.4-3.1,4.2c-2.6,0.8-3.3,0.6-3.8,3.6c-0.1,0.6-2.1,1.1-2.7,1.4
			c-1.2,0.5-0.1,1.6-0.9,2.2c-2.4,2-1.7,3.1,0.2,5.2c0.6,0.6-2.9,9.9-3.3,11.2c-0.7,2.6-0.7,2.6-3.1,3.6c-2.8,1.2-5.6,2.5-8.3,3.7
			c-2,0.9-4.9,3.8-5.3,6.1c-0.6,1.4,1.8,3.8,2.4,4.9c-3.6,0.1-2.7,6.5-1.9,8.5c0.9,1.9,1.1,4.1,1.4,6.2c0.1,0.6-1.6,1.4-1.9,1.9
			c-0.5,0.5-0.4,1.9-0.4,2.5c-0.1,3.6,6.7,6.9,1.3,8.8c-1.3,0.4-2.4-0.4-3.7,0.3c-1.6,0.4-1.2,3.1-1.8,4.1c-1,1.7-2,3.3-2.6,5.2
			c-0.2,0.7-0.3,1.9-0.6,2.6c-0.5,0.9-1.6,0.7-1.9,1.6c-0.7,1.9-1.9,3.4-3.6,4.7c-1,0.8-1.1,1.3-1.1,2.5c-0.1,1-0.8,1.3-1,2.3
			c-0.7,1.4,0.2,3.5-0.6,5.2c-0.4,1.5-1.7,2.1-2.9,3.6c-1,1.4,0.4,3.3,0.6,4.6c0.4,1.6,0.9,3.8,0.6,5.5c-0.4,1.9,1.4,2.7,0.6,4.6
			c-0.9,1.9-2.6,1.1-3.4,2.6c-1.3,1.4-3.7,7-2.3,8.7c0.4,0.4-2.6,1.3-2.8,2.3c-0.7,1.3-1,4.9-0.9,6.1c-0.1,1.3,1.3,4,2.1,4.9
			c0.7,0.8,1.6,0.3,2.2,0.9c0.8,0.8-0.8,1.1-1.1,1.6c-1.4,1.6,1.1,4,1.6,5.1c0.9,2,0,3.9,0.9,5.8c0.4,2.6,2.6,1.1,0.9,3.8
			c-0.6,1,0,5.1,1.7,5.1c0.5,0,3.1-1.6,2.1,0.8c-0.8,1.7-1.9,4-1.5,6c0.1,2.1,0.7,4.4,1.1,6.6c0.1,0.6-1.1,0.3-1.4,0.3
			c-1.4,0-1.5,1-1.5,2.1c0,1.4-1.9,3.1-2.4,4.5c-0.7,1.6-1.6,4-1.7,5.8c0,1.4,0.1,1.4-0.7,2.1c-0.5,0.4-2.3,0.1-1.9,1.5
			c-0.1,1.1,0.9,1.6,1.6,2.1c0.7,0.4,0.5,2.4,0.4,3.1c-0.1,1.1,0,1.5,0.4,2.6c0.4,1.3-0.3,0.8-0.4,2c-0.8,1.6,1.4,3.9-1.3,3.9
			c-1.4,0-3.2,2.4-2.7,3.9c-0.7,1.3-2.7,0.5-3.8,1.4c-1.2,0.7-1.8,4.8-2.3,6.1c-0.6,1.6,1.1,3.7,0.6,5.5c-0.4,1.4-1.3,2.2-0.4,3.9
			c0.2,1.1,0.8,1.3,0.5,2.7c-0.1,0.8-1.1,1.2-0.7,2.3c0.1,1.9,1.5,4.1,2.2,5.9c0.7,1.6-0.4,4,0.4,5.9c0.2,1.4,2.1,1.5,1.7,3
			c-0.5,1.9-3.2,2.2-4.9,3.2c-4.3,2.5-1.1,5.1-2.5,8.9c-0.3,0.9-0.9,5-1.8,3.7c-1.6-2.3-2.2,2.1-1.9,3.1c0.6,2.4,1.5,3.9-0.6,5.4
			c-1.4,1-0.9,4.2,1,4.6c0,0.4-2.1,1.6-2.1,3.1c-0.7,2.1-1.6,3.2-0.6,5.5c1.3,3.2-0.1,6.9,0.3,10.3c0.2,1.6-1.1,2.6-0.4,4.2
			s1.1,4.5,1.9,5.8c0.4,0.6,0.1,1-0.5,1.2c-1.4,0.7-0.4-0.1-1.7-0.3c-1.3-0.3-3.4,3-2.7,3.9c0,1.4,1,0.8,0.4,2.6
			c-0.3,0.8-0.8,1.8-0.6,2.7c0.4,2.3,0.4,4.2,0.1,6.6c-0.2,1.4,1,2.6,2.1,3.1c0.8,0.4,1.8,0,2.6,0.5c1.8,1.1-0.9,1.4-1.1,1.8
			c-2,0.5-0.8,3.6,0.1,4.3c0.6,0.5,1.9,1.2,2,2c0.1,0.9-1.4,0.7-1.4,1.9c0,1,1,1.9,1.6,2.6c0.8,1,0,1.4-0.6,2.4
			c-0.4,0.6-0.9,1.4-1,2.1c-0.3,0.8,0.9,2.4,0.1,3c-1.4,1,0.1,2.4,1.3,2.4c2.1,0,4.1-0.2,6.1,0.1c2.5,0.5,0.9,1.5,0.4,2.5
			c-0.8,1.9,0.1,3.8-2.5,2.2c-0.8-0.5-1.6,0.1-2.4,0.4c-0.7,0.2-1.6-0.7-2.2-0.2c-0.9,0-1.4,0.5-2.6,0c-0.8-0.4-1.7,0.1-1.6,1.1
			c0.1,3.3,1.1,2.9,4.2,3.4c2.3,0.4,2.3,0.9,3.5,2.5c1.7,2.2,2.7,2.8,1.1,5.1c-1.2,1.7-3.1,1.2-4.4,2.6c-1.4,1-0.6,4.5-0.4,5.9
			c0.2,1,1.4,0.7,1.7,1.4c0.4,1-0.5,1.6-1.1,2.4c-0.7,1-4.3,2.2-1.2,3.5c0.5,0.9,0.7,0.2,0.9,1.7c0.1,1.1,0.1,2.1,0.5,3.1
			c0.6,1.9,0.6,3.6-1.1,4.8c-0.6,0.4-1.3,0.1-1.8,0.7c-0.7,0.7-0.5,2.9-0.6,3.9c-0.2,1.6,2,2.5,1.4,3.9c-0.2,0.6-1.7,0.7-2.1,1.4
			c-0.4,0.6-0.9,2.1-1.9,1.9s-3.6,1.4-2.2,2.5c-0.2,1.5-0.9,2.9-1.5,4.6c-0.8,1.9-1.6,3.6,0.1,5.1c1.5,1.4,1.9,2,1.9,4.3
			c0.1,2.9-1.5,1.8-3.1,3.5c-1.3,1.4-0.4,2.9-0.3,4.7c0.2,2.4-0.3,2.9-2.1,4.5c-1.1,1.1-2.7,0.4-3.7,1.9c-0.9,1.3-2.9,4-2,5.5
			c-2.7,0.1-3.6-0.2-4.5,2.5c-1,2.9-0.2,3.6,0.4,6.4c0.4,1.6-0.1,0.9-0.5,2.2c-0.4,0.4-0.7,2.2-0.3,2.7c0.1,1.3,1.3,0.4,0.4,1.9
			c-0.4,0.6-0.5,1.4-0.2,2.1c0.6,1.7,2.9,1.9,3.2,4.1c0.2,2.1,0.4,4.3,0.9,6.4c0.3,1.3,0.7,3.1,2.5,2.5c1.6-0.5,2.3-2.9,4-2.9
			c0.4,0,0.9,1,1.5,1c1,0,1.1-1.1,1.7-1.3c2.5-0.6,1.3,1.1,1.5,2.4c0.2,1.8,1.9,2.6,0.9,4.9c-0.5,1.3-2.6,1.9-1.1,3.9
			c0.3,0.4,1.1,0.6,1.2,1.1c0.1,0.2-0.6,1.8-0.6,2.3c0,0.9,0,2-0.6,2.6c-1,0.9,0.1,2.6,0.5,3.6c0.7,1.9,2.8,2.6,4.2,4
			c0.9,1,0.5,3.9,2.1,3.9c5.1,0,10.3,0,15.5,0c4.1,0,7.7-0.5,11.5,1.2c4.1,1.9,8.3,1.8,12,4.5c1.4,1,3.5,0.4,5,1.1
			c0.3,0.1-0.1,1.6,1.1,1.1c0.9-0.4,1.1-1.6,0.9-2.4c-1.2-3.5-4.1-6.1-5.6-9.6c-0.6-1.6-1.2-3.4-2.2-4.8c1.4-0.7,0.1-3.4-0.2-4.4
			c-0.6-2.1-1.5-4.2-1.6-6.4c-0.1-0.9-0.3-1.5-0.6-2.4c-0.3-0.8,0.6-1.4,0.6-2.4c0-3.4,0.7-8.7,4.1-10.5c1.4-0.7,2.6-1.3,4-1.8
			c1.2-0.4,1.5-1.5,2.6-1.7c2.6-1.4,4.6-2.1,6.5-4.4c1.6-1.9,1.2-5.9,1.6-8.1c0.3-1.6,0.7-3.4,1.1-5c0.1-0.5-0.4-0.8-0.4-1.1
			c0,0,0.4-1.4,0.2-1.6c-0.6-2.1,3.4-4.4,4.5-5.6c1.1-0.5,1.3-2.6,2-3.4c0.9-1.1,2.9-0.8,3.6-1.7c1.3-0.9,1.9-2.1,3.2-2.9
			c1.4-0.9,1.9-1.2,3.1-2.6c1-1.1,2.1-2.4,3.3-3.4c1.1-0.9,2.4-0.6,1.8-2.8c1.2,0.9,2.9-0.1,2-1.6c-1.6-2.4-0.9-2.4,0.1-5.1
			c1.4-3.5,1.1-7.6-1.3-10.4c-1.3-1.5-2.1-0.7-3.6-0.6c-1.9,0.1-3.3-0.9-5.1-0.9c-4.3,0-5.6-4-8.7-6.5c-2.9-2.4-5.1-6.1-5-9.9
			c0.1-2.1,1.1-3.6,2.4-5.1c1-1.3,0.6-3.4,1.8-4.5c1.7-1.4,2.4-3.2,3.5-5.1c1-1.8,2.6-1.1,4.2-1.9c1.9-0.9,2.6-2.3,4.5-3.3
			c1.9-0.9,3.6-1.1,5.7-0.4c1.2,0.4,3.1,1.9,3.9-0.1c0.2-0.6,1.5-2.5,0.5-3c-0.5-0.7-1.8-0.4-1.9-1.4c-0.4-1.8,2.7-3.3,3.8-4
			c0.7-0.5,2.5-4.1,2.2-4.9c-0.9-2.6,0.3-2.1,0.5-4.5c0.1-1.9-1.1-2.9-1.4-4.9c-0.3-2.1,1-3.3,2.2-4.8c1.1-1.5,1.4-3.1,2.9-4.3
			c1.5-1.2,3-1.3,4.6-2.1c0.8-0.4,1.6-0.7,2.4-1.3c0.6-0.4,2.1-2.7,0.1-2.7c-2.2,0-3.3-0.1-5.3-1.4c-1.2-0.9-3.9-0.6-2.4-2.5
			c0.4-0.4,1.4-0.3,1.9-0.7c0.7-0.5,0.9-1,1.8-1.4c1.1-0.5,5.3-0.1,4.6,1.9c-0.6,1.6-0.3,3.1,1.4,4.1c1.6,0.9,4.1-0.4,5.8-0.7
			c2.9-0.6,2.4-5.4,2.4-7.6c0-1.7-1.1-6.9-3.4-6.6c-1.9,0.3-3.2,1.5-5,2.1c-1.1,0.4-3.9,0.6-1.9,2.2c0.5,0.3,4.2-0.4,2.6,1.4
			c-0.8,0.9-4.1,0.6-5.3,0.4c0.6-1.3,2.6-4-0.6-3.3c-1.4,0.3-4.3-1.1-4.9-2.4c-1.1-2.1-0.6-2.6,0.1-4.9c0.3-0.8-0.4-1.4-0.3-2.1
			c0.1-0.9,0.6-2.2,0.3-3.1c-0.9-2.4-3.9-8.3-1.6-10.9c0.5-0.6,1.2-1.7,2.1-1.8c1.6-0.1,0.9,1,1.7,1.6c0.6,1.4,4.7,1.9,6.1,2.6
			c3.4,1.8,6.1,3.5,10,3.4c4.2-0.1,7.6-0.1,11.2-2.3c1.3-0.8,4.7-1.9,5.2-3.4c0.2-0.6,2.4-4.8,0.9-4.8c-0.9-1.6-2.3-2.4-2.9-4.4
			c-0.2-0.6,1.9-2.4,1.8-3.6c0-0.8-0.2-2.7,0.4-3.3c0.5-0.5,1.4,0,2.1-0.6c1.1-0.6,1.3-6.1,0.5-7c3.1-0.1-0.9-3.4-2.1-3.6
			c-1.3-0.3-1.1-1.6-0.7-2.7c0.6-1.7,0.6-2.4-0.7-3.9c2,0.2,2.1,1.9,3.7,2.4c1.7,0.9,4.3,0.9,6.1,1.1c1.2,0.1,2.6-0.4,3.9-0.3
			c1.9,0.1,3.9,0,5.8-0.4c4.4-0.8,8.8-1.4,13.2-2.2c1.6-0.1,3.2-1,4.9-1.4c2.2-0.5,4.4-0.8,6.5-1.7c3.7-1.6,7.6-2.4,11.2-4.4
			c1.9-1.1,8.3-3.8,7.3-6.8c0.7-3.8,3.5-5.5,5.6-8.7c1.3-1.7,2.1-3.8,3.2-5.6c0.8-1.4,2.4-2.6,2.4-4.3c-0.1-1.9,0.6-8.3-1.6-9.5
			c-1.5-0.8-2.2,1.4-3.9-0.1c-1.7-1.5-2.7-2.6-3.6-4.7c-1.4-3.5,4.4-6.4,3.1-9c-0.4-2.7-3.9-5.4-5.9-6.8c-2.8-1.9-6.8-3.1-9.3-5.2
			c-2.4-2.1-2.9-3.6-1.2-6.4c1.4-2.4-1.4-5.6-1.9-7.8c-0.7-3.1,1.6-6.2,1.6-9.3c4.4,0.2,3.6-2.3,3.1-5.8c-0.2-1.3-0.9-3.3-0.2-4.5
			c0.6-1.1,1.4-1.8,1.3-3.1c-0.1-0.6-0.8-0.8-0.9-1.2c-0.1-0.5,0.3-0.9,0.2-1.4c0.3-1.1-0.6-2.3-0.4-3c0.1-0.2,1.2-0.4,1.5-0.7
			c0.4-0.5,0.5-1.1,0.6-1.7c0.4-1.3,0.8-2.8-0.6-3.7c2.1-1.5,2.6-5.9,3.2-8.2c0.7-2.6-2-4.9,0-6.6c0.5-0.4,1.4-0.9,1.7-1.5
			c0.4-0.6,0.3-1.6,0.6-2c0.5-0.6,1.6-1.1,2.2-1.8c0.4-0.5,1.7-1.4,1.7-2.1c0.3-0.6-0.1-1.5,0.4-2.1c0.6-0.7,2-0.4,2.9-1.3
			c2-2.1,3.9-4.4,5.4-6.9c1.1-2.6,4.1-3.1,4.6-6.5c1.4-1.8,3.2-3.4,4.6-5.6c1.1-1.8,1.4,0.1,2.6-0.1c1.4-0.2,1.1-2.6,0.1-3.1
			c1.3-1.2,3.1-1.4,4.4-2.7c0.7-0.7,0.4-1.3,1.5-1.9c0.9-0.4,2.5-0.3,3.1-0.9c2.1-1.2,1.2-3.5,3.6-3.8c1.4-0.1,3.7-1.1,5-1.6
			c1.1-0.5,3.1-1.9,3.7-2.9c1.1-0.8,0.9-1.1,2.4-1.1c0.7,0,1.1-1.1,1.3-1.6c0.4-0.9,1.4-2.4,1.2-3.4c0.1-1.1-0.5-2.3-0.4-3.5
			c0.1-1.1,0.2-2.1,0.2-3.4C680.9,161.3,681.9,160.6,681.7,159.7z"/>
		<path class="st0" d="M532.8,652.5c-2.1-1.2-5.2-0.1-7.4,0.3c-1.8,0.3-5.5-2-6.8-2.9c-1.2-0.9-2.6-1.6-3.7-2.6
			c-0.9-0.9-1.4-2.4-2.4-3.1c-2.4-1.4-4.9-2.8-7-4.6c-1.1-1-2.4-2-3.5-3.1c-0.7-0.6-0.4-2-1.4-2.9c-1.9-1.9-4.4-3.6-5-6.3
			c-0.3-1.5-0.6-2.6-1.3-4c-0.7-1.4-1.6-0.5-2.8-0.6c-4-0.2-1.8-3.3-0.3-5.1c0.2,0.8,0.3,2.5,1.4,2.6c0.9,0.1,0.8-0.9,0.7-1.4
			c-0.3-1.6-0.5-3.5-1.6-4.9c-1.4-1.5-4.8-8.1-4.8-3.4c-0.1,11.2-0.1,22.3-0.1,33.5c0,3.9-0.1,7.8-0.1,11.6c0,0.8-0.6,3.1,0.5,3.2
			c0.4,0.2,4.4-1,4.6-1.2c3-0.4,6.7,1.3,10.1,1c2-0.1,4.1,0.4,6.1,0.6c2.3,0.3,2.9,1.6,4.7,2.6c0.6,0.6,2.1,0.6,2.9,0.6
			c0.9,0,0.7-1.2,1.3-1.4c0.6-0.3,1.6,0.1,2.2,0c1.2-0.1,4.6-3.2,5.4-1.9c0.7,1.1,2.4,0.5,3.3,0.1c0.8-0.4,1.1,0.6,2,0.4
			C531.1,659.7,534.2,653,532.8,652.5z"/>
		<path class="st0" d="M628.1,578.4c0.1-0.5-0.2-1.1-0.6-1.3c1.6-0.7-0.4-3.7-1.1-4.3c-0.7-0.6-2.2-0.1-3.1,0
			c-2,0.1-1.4-0.2-3.1-1.2c-1.5-0.9-1.9,0.1-3.2,0.1c-0.7-0.1-1.4-0.6-2.1-0.9c-0.5-0.1-0.9-1.2-1.6-0.5c-0.7,0.7,0.4,1.7,0.7,2.3
			c-0.6,0-2.3,0.5-2.6,0.9c-0.5-1.1-3.7-3.1-4.7-3.4c-0.8-0.2-3.9-0.7-3.5,0.9c-1.1-0.7-2.6-0.1-3.9-0.1c-1.5-2.9-1.6,2-1.7,2.3
			c-2.2-1.6-0.2-0.3-1.5-2.3c-0.9-1.4-2.7-0.5-1.7,0.9c-3,1.4,2.7,5.1,3.6,6c0,0-2.6,0.2-2.8,0.3c-1.7-0.9-2.2,1.6-0.9,2.4
			c0.1,0.1,1.4,1.3,1.4,1.1c0.1,1.6-0.7,0.6-1.5,1.2c-3.2,2.4-1.1-3.3-2.6-3.3c-1,0-4.1,2.2-4.1,0.3c1.2,0.1,0.9-1.2,0.1-1.6
			c-1.4-0.6-2.7,1.6-1.4,2.5c-1.6,0.5,0.2,2.2,1.2,2.2c0.9,0,1.1,1.2,2,1.5c-2.8,1.1,3.6,4.5,3.8,4.7c1.1,2,5.3-1.1,5.8-2.5
			c0.7-2,0.7-0.4,2.1-1.4c1.1,1.1,3-2.1,3.4-2.6c2.1-3.2,4.6-4.7,6.5-7.8c0.4,1.4-1.3,2.2,0.6,3.4c-1.5,0.4-4.8,2.8-5.1,4.1
			c-0.6,0-2.2,0.9-2.2,1.6c-0.1,1,0.7,1.1,1.2,1.8c-0.4,0.3-1.9,0.6-2.1,1.4c-0.1,1.1,0.6,2.2,0.4,3.4c-0.6,1.1-0.4,2.6,1.4,2.6
			c2.1,0,0.4-3,0.8-3.6c0.4,0.5,3,2.7,3.7,2.4c1.2-0.6-0.4-3.1-0.5-3.7c0.7,0.4,1.6,0.9,2.2,1.4c2.6,1.7,1.7-2.2,1.6-2.9
			c1.4,1.5,1.2,0.1,2.6-0.4c0.6,0.3,2.9,2.9,2.4-0.4c1.4,2.2,2.2,1.3,2.7-0.6c0.4-1.1-0.5-1.4-1.4-1.4c-1.9,0,0,0.6-1.6-0.4
			c0.9-0.2,1.3,0,2.2,0c1.3,0,2.4-1.6,3.4-1.9C623.4,581.6,630.2,579.4,628.1,578.4C628.2,578.3,628.4,578.6,628.1,578.4z
			 M598.9,574.4c0.4-0.2,0.8-0.1,1.1,0.1C600,574.8,599.1,574.6,598.9,574.4L598.9,574.4z M603.7,572.1
			C603.7,572.3,603.2,571.8,603.7,572.1L603.7,572.1z M591.1,584.6c0-0.1,0.3,0,0.4,0.2C591.2,584.8,590.2,584.8,591.1,584.6z"/>
	</g>
</g>
<g id="Layer_1_1_" xmlns:amcharts="http://amcharts.com/ammap">
	<defs>
		
		
			<amcharts:ammap  topLatitude="-21.777295" rightLongitude="-53.646671" bottomLatitude="-55.053654" leftLongitude="-73.584888" projection="mercator">
			</amcharts:ammap>
	</defs>
	<path id="Buenos_Aires" class="st1" d="M618.7,283.6l-0.4,0.1l-0.4,0.9v0.7l0.9,0.5l1.6-0.9l0,0l1.5,1.3l4.9,2.1l4.6,3.1l2.1,1.7
		l1.9,2.6l0.9,1.6l-0.1,0.7l-3.2,4.9l-0.1,0.8l0.1,2.1l0.9,2.1l0.9,1.4l2.4,2.1l1.6,0.9l2.1-1l0.4,0.1l0.6,1.5l0.4,2.8l0.1,4.7
		l-0.2,0.8l-1.9,2.6l-3.4,6l-1.5,1.9l-1.9,1.9l-2,2.6l-0.6,1.8l-0.1,0.9l0.2,0.6l-0.1,1l-0.2,0.4l-1.2,1.1l-2.5,1.8l-4.6,2.5
		l-1.4,0.6l-6,1.9l-3.4,1.5l-6,1.3l-3.8,1.1l-1.6,0.1l-11.8,2.1l-3.5,0.4l-2.8-0.1l-1-0.2l-1.9,0.6l-3.6-0.4l-2.6-0.7l-0.9-0.4
		l-0.3-0.9l-1.2-0.8l-1.9-0.4l-0.4,0.2l-0.1,0.3l0.4,1l1.1,1.2l-0.8,2.1l-0.1,1.5l0.3,1.5l2.1,0.4l1.2,0.7l0.6,0.6v0.4l-0.4,0.4
		l-1-0.7l-0.7-1l-0.9,0.1l-0.2,0.4l1.6,1.6l1,1.3l-0.6,5.5l-0.7,0.4l-1.1-0.3l-0.6,0.8l-0.4,2.1l0.1,1.9l-0.2,0.9l-0.2,0.5l-0.7,0.4
		l-0.9,1.1l0.9,2.6l1.6,1.7h0.4l0.3,0.7l-0.2,0.5h-0.6l-0.4-0.4v1.1l0.1,0.1l0.9-0.6l0.9-0.3l-0.1,0.4l-0.4,0.2l-1.3,3.4l-5.3,3.1
		h-0.6l0,0l-1.7-2.8l-1.3-1.3l-1.5-1l-3.4-0.6l-0.1-23.3l0,0l0.1-69.8l0,0v-9.8l6.8,0.1l0,0l14.8-0.1l10.1-11.4l-0.1-0.5l0.2-0.6
		l0.9-0.3l2.3,0.4l1.4,1l1.1-0.2l0.7-1.4l0.1-1.1l1.7-2.4l0.1-0.6l-0.3-0.4l0,0l0,0l0,0l0.9,0.6l1.9,2l2.9,1.7l0.8,0.9l0.9,0.6
		l1.6,0.8l1.1-0.5l1.4,1.4l2.3,0.9l1.7,0.5l0.9,0.1l3.9,2.5l1,0.9l0.8,0.1l1-0.6l0.9-0.1l0,0l0.6,0.4l0.1,0.3l0.1,2.1l-0.7,1.2
		l-0.6,0.3l-0.3,0.7L618.7,283.6z"/>
	<path id="Catamarca" class="st1" d="M532.2,183.9l1.1,5.2l0.1,2.1l-0.1,1.1L532,194v0.8l0.7,0.3l0.3,0.4l0.1,0.6l0.2,4.6l0.4,3.5
		l0.6,1.4l1.4,2.6l0,0l-1.1,0.3l0.5,4.2l-2.6,2.9l0,0l-7.1-8.5l-1-1.4l-0.1-1.4l-0.6-1.1l-4-3.7l-3.1-1.6l-0.3-0.6l-0.1-1.7
		l-1.4-3.1l-0.6-0.7l-5.5-2.4l-0.6-0.1l-0.4,0.1l-0.7,0.9l-0.9,0.1l-2.4-0.3l-0.4-0.6l-1.3-0.9h-0.4l-1.4,2l-0.7,0.1l-1.3-0.3
		l-0.6-0.3l-0.6-0.8l-0.4-0.6l-0.2-1.3l-1.1-0.4l-1.6-0.2l-2.9-1.5h-0.6l-0.4-0.4v-2.2l0.2-0.9v-0.4l-0.2-0.2l-2.6,0.1l-2.9,0.6
		l-3.2-0.3l0,0l0.6-2.1l2.2-3.9l0.4-1.2l-0.1-0.6l0.1-0.4l0.8-1.3l0.9-0.2l0.6,0.1l0.6,0.4l3.1-1.1l1.1-0.6l0.4-1.6l-1.9-3.1
		l-1.4-1.6l-0.6-1.1v-1.8l0.2-1.1l2.1-2.1l-1.2-5.8l-0.8-1.8l-0.6-2.1l0.4-1.8l0.8-2.1l0.4-0.5l0,0l8.8,1.7l16-0.2l0.4,0.4l0.9,2.7
		l-0.4,1.9l-1.1,0.9l-2.1,0.1l-0.8,0.6l-0.1,1.2l0.2,1l2.3,3.1l1.4,2.8l1.2,1.2l0.6,0.1l0.2-0.2l0.7-1.9l0.4-0.1h1.5l0,0l-0.1,0.6
		l-0.7,1.7l0.1,2.1l2.5,0.7l2,1.5l0.2,0.6l-0.4,2.8l-3.4,4.2l-0.6,1.4l1.2,0.4l1.4,1.2l0.7,3.4l1.2,2.1l0.4,0.1l0.5-0.3l0.9,0.5
		l0.4,1.9l1.3,1.5l0.8-1.2l2.1-1.6l1.4,0.9L532.2,183.9z"/>
	<path id="Chaco" class="st1" d="M613.7,185.2h-36.9l0,0l-0.1-33.7H555l0,0l13.8-18l-0.1-3.9l0,0l4.5,2.1l1.1,0.8l1.1,0.3l1.5,1
		l0.6,1.1l1.3,0.6l1.3,1.3l2.8,0.5l0.4,0.2l0.8,1.1l0.6,1.3l0.7,0.8l3.1,2.5l3.9,1.9l1.4,2l2.1,2.1l0.2,1.3l0.6,1.1l2,0.9l2.1,1.3
		l2.1,2.8l0.4,1.6l3.1,0.6l0.5,1.9l0.5,0.4l1,0.1l0.9-0.3l3.1,0.9l1.4,1.6l2.6,2l2.6,2.8l1.4,0.8l0,0l-0.6,0.4l-1,1.1l-1.4,1.9
		l-0.6,0.1l-0.3,0.4v0.5l0.7,0.8l-0.1,1l0,0l-1.8,1l-1.4,1.3l0.4,3.8L613.7,185.2z"/>
	<path id="Chubut" class="st1" d="M448.5,477.7l0.5-0.4l-0.3-1.4l-0.3-0.4l-1.4-0.6l-0.5-2.2l0.6-3.1l0.5-0.4l1.4-0.3l1.8-0.9
		l2.1-3.1l-0.4-1.4l-2.2-2.9l-0.6-1.4l-0.4-0.4l-2.1-0.7l-4.2-0.6l-0.1-2.4l0.4-0.2l1.2,0.5l1.4,0.1l0.9-0.6l1.5,0.5l2.1-0.7
		l1.6,0.9h1.2l0.6-0.9l-0.1-1.5l0.6-1.3l0.6-0.1l0.3-0.3l0.1-0.6l-0.7-1.5l-0.4-0.4l-2.6-0.6l-1.9,0.1h-3l-0.6-0.1l-0.4-0.5l0.1-0.4
		l0.6-0.4l0.1-2l-0.3-0.9l0.5-1.4l1.7-2.6v-0.4l-2.1-2.7v-0.5l1.4-0.8l0.1-0.4l-0.1-1.1l-3-2.6l0.1-1.1l0.4-1.1l2-0.5v-2.1l-1.2-0.8
		l-2.1-0.2l-0.7-0.3l-0.4-0.3l-0.8-1.5l0.4-2.6l-0.1-2.4l-0.4-2.3l1.2-3.9l-1.1-1.4l1.4-2.6l0.3-0.1l0.4,0.1l0.3,0.7l0.4,0.1
		l1.7-0.8l0.6-0.6l-0.1-1.1l-0.4-0.5l0,0h85.6l0.9,0.2l0,0l0.9,1.8l1.5,1.4l3.6,1.1l0.9-0.2l0.9,0.4l-0.9,1l-0.9,1.5l0.1,0.5
		l1.9,0.2l4.4-0.3l0.9-0.9V412l-0.2-0.6l-0.6-0.4H543l-0.4-0.3l0.4-0.3l1.7-0.4l1.9-0.8l1.9-1.1l1.6-0.2l0.2,0.2l0.8,2.1l0.7,1
		l0.4,1l0.1,4.9l-0.6,2.6l-0.7,0.9l-0.4,0.1l-4.9,1.1l-0.5-0.3l-1.4-1.7l-0.1-0.4l0.6-1.9l-1.8-1.9l-1.6-0.6l-2.1,0.2l-1.5,0.7
		l-0.6,0.8l-0.6,0.4l-1.4,0.4l-0.4,0.2l-0.9,1.4l0.1,0.6l0.3,0.3l2.4,0.9l2.3,1.6l2.8,0.8l1.2-0.4l0.4,0.7l-1.2,0.9l-2.6,1.3
		l-1.4,0.3l-1.2,0.5l-1.7,1.4l-1.4,1.4l-1.3,2.6l-1.6,2l-0.9,1.6l-0.1,1l0.3,2l0.4,0.9l0.4,1.6l0.6-0.2l-0.2,2.7l-0.9,0.4l-0.2,1
		l0.8,2.3l-1.1,2.1l-0.6,1.7l-2.7,1.7l-0.6,0.6l-0.6,1.1l-0.4,1.1l0.1,1l2.3,1.1l-0.9,2.4l-1,0.4l-0.8-0.6l-1.2-0.4l-3.5-0.4
		l-0.9,0.1l-4.4,2.2l-0.6,1.4l-1.6,0.7l-2.1,0.3l-1.2,0.8l-0.6,0.5l-2.5,4.5l-1.5,1.3l-0.3,0.4l-0.8,3.2l-2,2.5l-0.6,1.4l0,0
		L448.5,477.7z"/>
	<path id="Ciudad_Autónoma_de_Buenos_Aires" class="st2" d="M647.1,279.2l-15.5,8.6l-8.8-5.2v-7.1l4.2-9.3l3.9-1.7l0,0l5.5,5.1l7.6,2.2L647.1,279.2z"/>
	<path id="Cordoba" class="st1" d="M533.2,290.9v-15.6l-0.6-12.3l1.6-3.1l1.6-5.8l0.1-1l-0.5-3.6l-0.4-0.4l-1.5,0.4l-1.8,0.1
		l-0.7-3.2l-0.8-0.9l-4.2-2.6l-1.6-0.1l0,0l-0.1-12.4l3.1-9.9l0.4-0.6l1.1-3.3l3.3-0.9l0.2-0.3l0,0l2.6-2.9l-0.5-4.2l1.1-0.3l0,0
		l7.9-2l2.9,0.9v0.5l0.5,0.7l2.4,1.3l1.2,0.1l1.6-0.2l1.3,0.3l0.6,0.3l0.6,0.6l0.3,0.8l2.5,0.1l12.1-0.2l2.2,5.8l0,0l-0.7,4.4h-0.6
		l-0.1,1.6l2.4,1.6l2.1,0.8l-3.7,13.8l-1.4,1.2l0.4,2.9l-0.1,3.3l1,1.1l0.9,0.6l0.4,1.6l1.6,1.5l1,3.2l1.2,1.9l0.1,0.6l-0.4,2.3
		l-0.6,1.1l-0.6,0.4h-0.5l-0.5,0.8L561.8,281l0,0l-6.8-0.1v9.8l0,0L533.2,290.9L533.2,290.9z"/>
	<path id="Corrientes" class="st1" d="M603.4,219.6l-0.2-1l1.3-3.7l-0.1-0.6l-0.9-1.3l-0.2-0.6l0.9-3.3l0.1-3.1l1.2-2.8l1.6-0.7
		l2.2-2.3l1.5-5.9l0.4-3l-0.1-3.6l0.4-0.6l0.5-0.2l0.7,0.1l0.6-0.4l0.4-1.4l0,0l0.5-3.9l-0.4-3.8l1.4-1.3l1.8-1l0,0l1.3-0.4l4.5-0.3
		l4.7,0.4l0.8,0.2l1.4,0.9l2.6,0.6l1.5,0.2l1.1,0.6l1.1,0.3h0.6l2.1-1.1h0.4l1.1,1l0.8,0.2l0.8-0.6l0.9-0.2l0.7,0.1l0.6,0.4l0.6,1.1
		l0.5,0.4l0.7,0.1l1.1-1.7l0.1-1.1l1.6-1.1l1.4-0.1l0.9,0.4l0,0l-0.4,0.3l-0.3,1.3l0.1,0.6l1,1.7l0.9,2.1l0.4,2.6l1.1,1.9l1.6,1.3
		l0,0l-0.6,0.8l-0.9,0.4l-0.3,0.3v0.3l1.1,0.6l0.1,0.5l-0.4,1.1l-0.4-0.6l-1.3-0.1l-0.8,0.2l-1.1,1.7l-0.4,1.1l-0.7,0.9l-1.4,1.5
		l-1.4,0.7l-0.3,0.3l-0.1,0.5l-1.6,3.5l-1.1,0.4l-1,0.7l-0.6,0.9l-0.1,0.9l-0.5,1.1l-4.5,5.4l-0.8,0.9l-0.5,0.2l-1.1,0.1l-0.7,0.4
		l-0.5,1.1l-0.1,1.5l-2.1,2.3l-0.9,0.6l-0.7,0.2l-0.3,0.8v0.9l-0.5,0.9l-2.8,2.4l-0.1,1.2l0.6,0.6l0.5,1.6l0,0l-0.8-0.6l-1.6-1.7
		l-1.6-3.1l-1.4-2.1l-0.8-0.4l-3.6-1l-1.4,0.1l-1.3,0.7l-1.1,0.3l-2-0.4l-1.3,0.9l-0.3,0.5l-1.1,0.6l-2.1-0.5l-1.5,0.1l-0.8,0.4
		L603.4,219.6z"/>
	<path id="Entre_Ríos" class="st1" d="M595.2,263.8l-0.7-1l-2.4-1.3l-2-3.9l-0.2-0.9l-0.4-2.9l-0.1-1.9l0.9-2.6l-0.4-2.5l0.8-6.3
		l0.3-0.3l0.5-0.1l2-0.2l1.1-1l2.6-3l1.4-2.9l0.6-0.4l3.2-4.9l2-3.5l0.1-0.8l-0.1-2.4l-0.9-1.4l0,0l1-0.1l0.8-0.4l1.5-0.1l2.1,0.5
		l1.1-0.6l0.3-0.5l1.3-0.9l2,0.4l1.1-0.3l1.3-0.7l1.4-0.1l3.6,1l0.8,0.4l1.4,2.1l1.6,3.1l1.6,1.7l0.8,0.6l0,0l0.1,2l-1.6,5.8
		l-1.1,2.2l-0.8,0.5l-0.1,0.4l1.1,1.1l0.1,1.1l-0.8,2.6l-0.3,0.4l-1.3,0.4L622,243l0.7,1.5l-0.1,1.1l-0.4,1.4l0.3,0.6l0.8,0.9
		l0.1,0.6l-0.1,0.5l-0.6,0.6l-0.8,1.4l-0.1,0.9l0.9,6.5l0.1,1.6l-0.6,0.7l-2.8-0.1l-0.3,0.3v2.5l-0.4,1.1l-0.6,1.1l-0.3,1.6
		l-0.2,3.4l0.2,0.6l0.9,1.2l0.4,2.1l-0.1,0.4l0,0l-0.9,0.1l-1,0.6l-0.8-0.1l-1-0.9l-3.9-2.5l-0.9-0.1l-1.7-0.5l-2.3-0.9l-1.4-1.4
		l-1.1,0.5l-1.6-0.8l-0.9-0.6l-0.8-0.9l-2.9-1.7l-1.9-2L595.2,263.8z"/>
	<path id="Formosa" class="st1" d="M568.7,129.6v-23l0,0l1.1,0.8l1.3,3.2l1.6,2l0.4,1.5l0.9,0.9l0.9,0.3l1.3,1.1l0.1,0.9l0.9,0.7
		l1,0.1l1.9,1.7l2,1l2.4,1.6l1.3,2.9l1.7,0.6l3.4,0.6l0.5,0.7l3.9,1.3l1.5,0.1l1.6-0.4l7.3,4.9l1.8,1.9l4.5,2.4l2.4,1.8l1.8,0.6
		l1.8,0.1l1,0.1l1.3,1.5l2.2,0.1l1.6,0.9l2.4,0.7l1.5,1.2l0.3,0.9l0.9,0.9l0.5,1.3l1,0.8l-0.3,1.6l-2.2,2.6l-0.8,0.6l0.1,0.9
		l-1.2,1.7l0.5,0.6l-1.9,1.5l-0.6,0.2l-1.3,1.3l0.1,0.7l-1,2.4L622,164l0.6,0.9l-0.1,0.8l-1.7,3.1l-0.5,0.2l0,0l-1.4-0.8l-2.6-2.8
		l-2.6-2l-1.4-1.6l-3.1-0.9l-0.9,0.3l-1-0.1l-0.5-0.4l-0.5-1.9l-3.1-0.6l-0.4-1.6l-2.1-2.8l-2.1-1.3l-2-0.9l-0.6-1.1l-0.2-1.3
		l-2.1-2.1l-1.4-2l-3.9-1.9l-3.1-2.5l-0.7-0.8l-0.6-1.4l-0.8-1.1l-0.4-0.2l-2.8-0.5l-1.3-1.3l-1.3-0.6l-0.6-1.1l-1.5-1l-1.1-0.3
		l-1.1-0.8L568.7,129.6z"/>
	<path id="Jujuy" class="st1" d="M531.5,101.1l-0.5,1.8v1.3l-1.3,2.8l0.1,0.7l1.3,5.2l0.6,0.6l1.9,0.1l0.5,0.7l-0.1,1.4l-0.4,1.3
		l0.1,0.4l1,0.4l0.9,1.9l0.1,0.6l0.9,0.4l0.8-0.6l1-0.2l1.5,0.8l1.1,1.3l0.9-0.6l0.4-0.6l2.4,0.1l0.3,9.4l-0.3,1l-1.6,2.2l-1.4,0.3
		l-1.4,0.9l-0.5,0.5l-0.7,1.2l-2.6-2.3l-0.5,0.6l-0.7,1.5l-1.6-0.5l-1.1-0.8l-2.1-0.1l-3.2-0.9l-0.7-0.4l-2.1-3l-0.1-0.6l0.1-0.8
		l-0.2-0.4l-1.5-1.1l-0.4-0.1l-0.5,0.3l-0.6-0.7l-0.4-1.2l0.1-1.2l0.5-0.8l-0.1-2.6l-2.3-1.6L517,119l-0.5,0.1l-0.4,1.9l0.5,2
		l-0.1,1.6l-1.6,4.9l-0.3,0.5l-2.1-0.4l-2.2-1l-2.7-3.1l-0.9-0.3l-1.5-1.2l0,0l1.3-4.8l1.9-5.4l-2.4-2.5l0.8-1.4l1.4-1.2l-0.1-1.6
		l3.2-1.4l0.5-2.8l0.6-0.4l0.9-0.1l3.5-1.1l0.5-0.6l1.1-4.1l1.9,0.7l2,1.4l1.5,1.9l0.8,0.6L531.5,101.1z"/>
	<path id="La_Pampa" class="st1" d="M555.1,360.7l-0.7,0.1l-0.8-0.2l-4.9-3.6l-1.4-1.3l-2.3-1.3l-1.2-0.6l-2.6-0.9l-1.1-0.1
		l-3.3-0.6l-3.1-0.2l-1.6,0.1l-1.1,0.4l-1.6,0.2l-0.6-0.5l-1.8-0.5h-0.4l-1.1,0.6l-4.1-1.4l-3.4-0.3l-1.7,0.4l-2.4-0.7l-0.4-1.5
		l-0.9-1l-1.7-0.9l-2.3-0.7l-1.4-0.8l-0.8-1l-0.4-1.9l-1-0.2l-1.4,0.6l-2.4,0.1l-1.3-1l-0.6-1.3l-0.5-0.6l-0.7-0.3l-0.6,0.1
		l-0.6-0.7l-0.1-1.1l0.1-0.5l0.7-0.7l0.9-0.5l0.4-1v-0.8l-0.2-0.6l-0.9-1.4l-1.4-0.6l-4.4-0.4l0,0v-22.5h-0.6l0.1-2.6h21.6l0,0h19.8
		v-15.8l0,0h22l0,0v70H555.1z"/>
	<path id="La_Rioja" class="st1" d="M532.7,215.4l-0.2,0.3l-3.3,0.9l-1.1,3.3l-0.4,0.6l-3.1,9.9l0.1,12.4l0,0l-1.4,0.3l-0.8-0.1
		l-1.1-0.5l-1.1,0.2l-1.6,0.7l-1.7,0.1l-2.8-0.3l-1.1-0.5l-0.9-0.1l0,0l-0.6-1.4l-1-1.8l-1.4-1l-1.1-1.1l-0.8-2.6l0.6-4.1l-0.9-0.7
		l0.6-2.1l-1.2-2.4L506,225l-0.7-0.4l-1.6-2.1l-2.4-2.4l-0.3-1.2l-0.4-0.6l-3.6-2.9l-1.4-1.4l-0.4-0.9l-3.6-2.9l-2-0.9l-2.9-0.7
		l-1.7,0.5l-2,0.1l-0.4-0.1l-0.1-1.3l0.9-5.1l0.4-0.1l0.2-0.3l0.1-0.9l-0.3-2.5l-2.5-2.6l-0.6-2.1l-2.5-2.1l-1.2-0.2l-2.8-0.9l0,0
		l1.6-1.3l2.4-2.7l0.8-2l1.4-0.4l0.5-1l0.4-1.9l0,0l3.2,0.3l2.9-0.6l2.6-0.1l0.2,0.2v0.5l-0.2,0.9v2.1l0.4,0.4h0.6l2.9,1.5l1.6,0.2
		l1.1,0.4l0.2,1.3l0.4,0.6l0.6,0.8l0.6,0.3l1.3,0.3l0.7-0.1l1.4-2h0.4l1.3,0.9l0.4,0.6l2.4,0.3l0.9-0.1l0.7-0.9l0.4-0.1l0.6,0.1
		l5.5,2.4l0.6,0.7l1.4,3.1l0.1,1.7l0.3,0.6l3.1,1.6l4,3.7l0.6,1.1l0.1,1.4l1,1.4L532.7,215.4z"/>
	<path id="Mendoza" class="st1" d="M464.3,308.8l0.4-1l-0.2-2.9l0.5-0.9l0.4-0.4l-0.9-2.8l0.2-0.4l0.1-1.6l-0.4-2.4l-1.6-1.1
		l-0.2-0.9l0.3-0.5l1.1-0.2l0.9-0.4l0.2-0.4l0.1-2.4l1.6-5.3l1.1-2.1l1.4-2.1v-1.8l0.8-0.2l1.3,0.1l0.9-0.6l-1.1-7.1l0.4-3.4
		l1.2-2.6l-0.4-1.6l-1.3-0.6l-0.4,0.1l-0.6,0.9l-0.4,0.1l-1.2-1.9l0.1-1.6l-0.2-0.4l1-1.6l0.4-1.1l-0.6-0.4l-1.3-1.4l-0.4-2l0.3-1.9
		l-1.3-3l0,0l1.1-0.2l2.4,0.1l1.9-0.6l2.1-0.1l0.4-0.4l0.1-1.4l0.4-0.5l2-1l0.6-0.1l1.9-0.8l0.9-0.6l0.8,0.2l0.9,1.3l0.5,0.4
		l1.1-0.1l0.7,0.2l1.5,0.9l2.5,0.6l0.9-0.1l0.2-0.4l0.2-1.1l0.4-0.2l1.2,0.4l1.6,0.1l2.6-0.6l0.7,0.5l0.4,0.9l1.3,1.1l2.1,0.4
		l1.3-0.1l1.2,0.4l1.5,1.7l0,0l0.4,0.4l0.4,1.1l0.6,2.9l0.6,1.5l-0.4,2.4l0.4,0.7l0.2,3.1l-0.1,0.5l0.5,3.3l2.2,4.4l0.5,1.6l0.4,0.5
		l0.8,0.6l1.1,1.9l0.3,1.2l-0.2,1.1l-0.9,1.1l0.1,2.4l0.9,3.4l1.9,3.2l0.6,2l0.4,3v3.6l-0.2,2.4l-1.4,7.3l0.2,0.5l0,0h-21.6
		l-0.1,2.6h0.6v22.5l0,0l-1.1-0.2l-1.7-0.8l-3.9-2.1l-1.4,0.3l-1.6-0.4l-0.4-0.4l0-0.5l-0.4-0.8l-2.4-1.1l-1.7,0.1l-0.9,0.3
		l-1.1-0.1l-1.1-0.3l-1.1-0.8l-1.1-1.6l0.4-1.3l-0.1-1.2l-1.5-0.9l-0.6-1.4l-1.6-1.6l-1.1-0.4l-0.7-1.2l-0.6-2.3l-0.3-0.1l-0.8,0.3
		l-0.3-0.4l-0.2-1.1l0.2-0.4l0.1-0.8l-0.2-0.6L464.3,308.8z"/>
	<path id="Misiones" class="st1" d="M651.1,175.5h0.9l0.6,1.1l1.1,0.5l0.4-0.1l1.7-1.4l0.4-1.3l-0.1-0.6l0.1-0.7l0.4-0.8l1.7-1.9
		l2.1-0.7l1.6-0.9l0.9-1l1.2-0.3l0.4-1.4l0.7-0.5h0.4l1.9-3.3l0.4-2.1l-0.1-0.6l0.4-0.4v-0.4l-0.3-0.4v-2.6l0.7-0.5l-0.3-4.2
		l0.4-1.1l0.6-0.1l1.2,0.9l0.9-0.7l0.9-0.4l1.8,0.1l0.9-0.9l2.9,2l0.8,2.4v2.1l2.1,3.5l0.2,0.8l-0.2,0.9l-0.6,0.8v2.1l-0.4,2.6
		l0.5,2.7l-1.4,3.6l-0.4,0.6l-0.2-0.3l-1.9,0.6l-0.9,1.1l-0.6,0.4h-0.4l-1.7,1.9l-1,0.5l-2.2,0.5l-2,0.9l-1.1,0.1l-0.2-0.1l-0.1-0.3
		h-0.3l-1.1,1.9l-0.1,0.9l-1.4,1.5l-2.1,0.4l-1.9,0.9l-0.7,0.8l-0.1,0.8l-0.9,0.9l-2.3,0.8l0,0L654,186l-1.1-1.9l-0.4-2.6l-0.9-2.1
		l-1-1.7l-0.1-0.6l0.3-1.3L651.1,175.5z"/>
	<path id="Neuquen" class="st1" d="M448,364.7h0.2l0.6,0.8l0.4,0.1l1.2-0.1l0.2-0.3l0.6-2.7l0.6-1.7l0.2-1.5l-0.4-3.4l0.1-1.3
		l0.4-0.8l0.8-0.6l3.6-2.1l1.6-0.1l0.8-0.9l0.4-1.7l0.1-0.5l-0.2-0.6l-1.4-1.1l-0.3-0.6l-0.6-3.1l0.2-2.6l-1.6-3.8l-0.7-2.3l0.1-1.1
		l0.7-0.6l0.2-2.1l-0.7-1.3l-0.4-1.2l0.1-0.6l0.4-0.5l0.4-2l-0.9-4.4l2-5.8l0.2-0.1l0.9,0.2l3.2-1.1l0.1-0.4l-0.3-0.7l0.2-1.1
		l1.5-1.7h1.6l0.6-0.4l0,0l0.6,0.6l0.2,0.6l-0.1,0.8l-0.2,0.4l0.2,1.1l0.3,0.4l0.8-0.3l0.3,0.1l0.6,2.3l0.7,1.2l1.1,0.4l1.6,1.6
		l0.6,1.4l1.5,0.9l0.1,1.2l-0.4,1.3l1.1,1.6l1.1,0.8l1.1,0.3l1.1,0.1l0.9-0.3l1.7-0.1l2.4,1.1l0.4,0.8l0.2,1.1l0.4,0.4l1.6,0.4
		l1.4-0.3l3.9,2.1l1.7,0.8l1.1,0.2l0,0l0,0l0,0l-0.1,23l-2.9,1.5l-0.8,0.2l-0.9,0.8l-0.9,1.7l-1.6,1.4l-1.7,2.9l-1.5,0.9l-1,0.1
		l-1.6,1l-1.2,2l-1.6,1.3l-3.7,1.4l-2.4,1.3l-0.6,0.9l-0.3,0.9l0.3,0.9v1.2l-0.9,2.9l-1.5,2.1l-2.6,0.9l-1.6-0.4l-1.1,0.5l-0.8,0.8
		l-2.1,0.2l-0.9,0.4l-1.3,0.8l-1.6,1.4l-0.2,0.9l0.8,1l0.3,1.2l-0.4,0.9l-1.1,1.4l-1.1,0.6L453,391l-0.9-0.2l-1.9-0.9l-4.2-0.4l0,0
		l0.3-0.9l-0.1-0.7l-1.3-3.1l1.1-1.4l0.3-0.7v-1.1l0.8-2.1l0.6,0.3l0.3-0.1l0.6-1.5l-0.1-0.6l-0.4-0.3l-0.2,0.4l-0.9-0.9l-0.4-0.7
		l0.4-1.5l1.6-1.1l0.4-1.6l-0.9-3.7l-0.1-1.7L448,364.7z"/>
	<path id="Rio_Negro" class="st1" d="M447,406.1l-0.4-2.4l-1.6-3.6v-0.5l0.9-1.3l-0.2-2l-0.4-1.3l0.5-2l0.3-3.1l-0.2-0.8l0,0
		l4.2,0.4l1.9,0.9l0.9,0.2l1.1-0.1l1.1-0.6l1.1-1.4l0.4-0.9l-0.3-1.2l-0.8-1l0.2-0.9l1.6-1.4l1.3-0.8l0.9-0.4l2.1-0.2l0.8-0.8
		l1.1-0.5l1.6,0.4l2.6-0.9l1.5-2.1l0.9-2.9v-1.2l-0.3-0.9l0.3-0.9l0.6-0.9l2.4-1.3l3.7-1.4l1.6-1.3l1.2-2l1.6-1l1-0.1l1.5-0.9
		l1.7-2.9l1.6-1.4l0.9-1.7l0.9-0.8l0.8-0.2l2.9-1.5l0.1-23l0,0l4.4,0.4l1.4,0.6l0.9,1.4l0.2,0.6v0.8l-0.4,1l-0.9,0.5l-0.7,0.7
		l-0.1,0.5l0.1,1.1l0.6,0.7l0.6-0.1l0.7,0.3l0.5,0.6l0.6,1.3l1.3,1l2.4-0.1l1.4-0.6l1,0.2l0.4,1.9l0.8,1l1.4,0.8l2.3,0.7l1.7,0.9
		l0.9,1l0.4,1.5l2.4,0.7l1.7-0.4l3.4,0.3l4.1,1.4l1.1-0.6h0.4l1.8,0.5l0.6,0.5l1.6-0.2l1.1-0.4l1.6-0.1l3.1,0.2l3.3,0.6l1.1,0.1
		l2.6,0.9l1.2,0.6l2.3,1.3l1.4,1.3l4.9,3.6l0.8,0.2l0.7-0.1l0,0l0.1,23.3l3.4,0.6l1.5,1l1.3,1.3l1.7,2.8l0,0l-3.7,1.9l-9.2,0.2
		l-1.3-0.6l-0.7-0.8l-0.9-0.5l-2-0.6l-1.9-1.1l-6-2.1l-0.7-1.7l-1.7-0.4l-0.9,0.3l-1.9,2.1l-0.6,2.5l0.2,2.1l1.2,5.6l0.8,0.9
		l0.1,0.4l-0.5,2.9l0.4,1.4l-1,2.7l-0.1,0.6l0.2,0.9l0,0l-0.9-0.2L447,406.1z"/>
	<path id="Salta" class="st1" d="M555.1,151.4l-6.8-0.1l-3.5-1.1l-3,6.6l-0.8,2.7l0,0l-2.8,0.1l-1.4-0.2l-1.3,0.8l-0.4,0.1l-4.4-1.6
		l-0.5-1.3l-0.4-0.1l-1.4,0.7l-2.9-0.6l-0.2,0.3l-0.2,2.6l-0.3,0.4l-3.5-0.5l-2.1-0.5l0,0H518l-0.4,0.1l-0.9,1.9l-0.2,0.2l-0.6-0.1
		l-1.2-1.2l-1.4-2.8l-2.3-3.1l-0.2-1l0.1-1.2l0.8-0.6l2.1-0.1l1.1-0.9l0.4-1.9l-0.9-2.7l-0.4-0.4l-16,0.2l-8.8-1.7l0,0l0.9-0.1
		l0.9-0.4l-1.9-3.2l-0.6-0.4l-0.3-0.8l0.1-0.4l0.8-1.6l1.5-2.4l0.3-0.2l0.6,0.1l0.9-1.4l11.8-5.3l1.1-4.1l0,0l1.5,1.2l0.9,0.3
		l2.7,3.1l2.2,1l2.1,0.4l0.3-0.5l1.6-4.9l0.1-1.6l-0.5-2l0.4-1.9l0.5-0.1l2.1,0.7l2.3,1.6l0.1,2.6l-0.5,0.8l-0.1,1.2l0.4,1.2
		l0.6,0.7l0.5-0.3l0.4,0.1l1.5,1.1l0.2,0.4l-0.1,0.8l0.1,0.6l2.1,3l0.7,0.4l3.2,0.9l2.1,0.1l1.1,0.8l1.6,0.5l0.7-1.5l0.5-0.6
		l2.6,2.3l0.7-1.2l0.5-0.5l1.4-0.9l1.4-0.3l1.6-2.2l0.3-1l-0.3-9.4l-2.4-0.1l-0.4,0.6l-1,0.4l-1.1-1.2l-1.5-0.8l-1,0.2l-0.8,0.6
		l-0.9-0.4l-0.1-0.6l-0.9-1.9l-1-0.4l-0.1-0.4l0.4-1.3l0.1-1.4l-0.5-0.7l-1.9-0.1l-0.6-0.6l-1.3-5.2l-0.1-0.8l1.3-2.8v-1.3l0.6-1.8
		l0,0l2.6-0.1l0.2,0.2l3.3,1.1l0.4-0.1l1.2,0.5l0.6,0.6l0.3,2.1l0.8,1.6l0.2,0.9l-0.1,0.9l1.1,1.3l0.3,1.9l0.3-0.1l0.2-0.4l0.3-2.6
		l0.4-1.1l0.4-0.8l1.3-1.4l2.4-5.7l14.8,0.1l0.2,0.3l0.1,1.4l0.4,0.6l1.6,1.1l1.6,1.9l1.6,1.2l0.6,0.2l0,0v23l0,0l0.1,3.9
		L555.1,151.4z"/>
	<path id="Santa_Cruz" class="st1" d="M501.9,534.7l-1,1.1l-0.7,1.5l0.3,1.1l-0.9,1.4l-1.4,1.7l-0.5,1.1l1.4-0.1l0.9-2.4l0.3-0.1
		l0.3,0.2l-1.1,5.1l-1,6.6l-0.3,0.9l-1.1,1.4l-2.4,2.1l-1.8,0.9l-0.9,0.1l-0.8-0.1l-1.2-1.1l-1.1-1.8l-1.1-1l-0.2,0.4l-1.1,0.5
		l-2.1-0.1l-1.4,0.4l-0.5,0.4l1.2-0.1l0.9-0.4l2.3,0.2l1.1-0.2l0.4,0.4l0.6,1.5l1.7,1.2l0.1,0.4l-0.6,0.8l-2.9,1.1l-2.2,1.1
		l-0.7,0.6l-0.9,1.1l-1.6,2.7l-0.4,1.4l-0.6,3.1v2.8l-1.4,1.7l-1.1,1l-0.9,1.4l1.4-1.4l1.4-0.9l0.6,1.6l0.1,2.3l2.2,7.1l0.1,0.7
		l-0.2,0.7l-0.6-0.2l-0.5,0.1l-1,0.9l-1-0.4l-1.1-0.7h-1l-1.4,0.4l-1.6,1l2.9-0.6l1.7,0.4l1,0.5l2.1-0.4l0.3,0.1l0.9,1.6l1.7,4.1
		l1.4,2.6l1.2,1.9l1.1,1.3l1.4,2.4l0.3,0.9l-0.5,0.9l-0.3,0.1l0.1-1.1L488,602l-3.3-0.6l-2.1-1.6l-3.1-1.3h-2.9l-6.9-3.1H445
		l-0.6-2.9l-2.3-2.4l-0.9-0.6l-1.1-0.4l-1.4-3.8l0.7-0.6l0.5-1.8v-1.8l0.8-1.5l-0.5-0.7l-0.8-0.5l-0.3-0.4l-0.3-1.1l0.8-1.5l0.6-0.1
		l0.2-0.4l0.3-3.2l-0.5-1.1l-0.7-0.9l-0.1-0.5l0.6-1.6l-1-0.8l-1.6-0.2l-0.6,0.2l-0.6,0.9l-0.7,0.3l-0.4-0.1l-0.9-0.9h-0.4l-1.8,0.9
		l-1,1.3l-0.9,0.6l-0.7,0.2l-0.6-0.3l-0.2-0.4l-0.6-2.9l-0.6-5.5l-0.7-1.6l-2.5-2.1l-0.2-0.6l0.1-0.6l0.6-1.1l0.1-0.6l-1.1-1.2
		l0.3-1.8l1.1-1.2l-0.9-3.7l-0.7-1.3l1.5-4.6l4.2-0.1l0.6-0.7l-1.1-0.3l-0.1-0.6l1.3-3.1l0.9-1.4l0.3-0.4l0.9-0.5l1.4-0.1l0.7-0.4
		l2.2-2l0.4-0.9v-0.9l-0.3-2.8l-0.4-1.8l0.1-0.4l0.5-0.5l1.7-0.8l1.7-1.1l-0.1-3.1l-0.3-2.1l-1.1-1.4l-0.6-0.1l-0.9-0.8l-0.3-0.9
		l1-2.9l1.6-3.2l0.3-1.7L439,505l0.1-0.6l0.5-0.4l0.7-0.3l0.8,0.1l0.4-0.1l1-1.1l0.9-1.4l1.7-0.9l0.2-0.3l0.2-0.9l-0.1-0.6l-1.5-2
		l0.5-4.1l0.3-0.3l1.4-0.3l1.6-1.6l0.3-0.9l-0.1-2.1l-0.7-2l-0.3-3.4l-0.3-0.5l-0.9-0.4l-0.9-0.9l1.8-0.6l1.6-2.2l0,0h52.5l0,0
		l-0.4,1.4v1.1v0.9l0.6,2.8l0.5,1.8l0.4,0.7l2.1,3.1l3.1,2.5l3.6,4.4l1.4,1l0.9,0.1l1.7-0.1l1.8,0.3l0.2,0.3l1.9,0.3l1.4-0.1
		l0.6-0.4l0.9-0.1l1.2,0.6l1.6,1.8l0.6,2.6l-0.3,3.9l-0.4,1.4l-1.1,2.8l-0.2,0.2l-1.5-0.1l-0.4,0.1l-1.1,1.1l-1.5,0.4l-0.2,0.4
		l0.4-0.3l1.1-0.1l1.9-1h0.3l0.7,0.4l1.5,2.4v0.6l-0.5,0.1l-1.1-0.5l-0.7,0.3l0.3,1.7l-0.2,0.9l-1.4,0.1l-3.5,3.6l-1.7,2.2l-1.1,0.2
		l-1.5,0.6l-2.1,2.5l-1.4,0.4l-1.9,1l-0.5,0.6l-1.6,3l-0.9,0.4l-1.2,1L501.9,534.7z"/>
	<path id="Santiago_del_Estero" class="st1" d="M532.2,183.9l1.3-0.3l0.9-1.6l-0.9-2l0.1-2.4l1.6-2l0.6-0.1l0.9-2l1.9-5.6h0.5
		l0.6-1.7h1.2l-0.4-3.4l0.6-1.9l-0.1-1.1l0,0l0.8-2.7l3-6.6l3.5,1.1l6.8,0.1l0,0h21.8l0.1,33.7l0,0l-4.9,31.7l0,0l-2.2-5.8
		l-12.1,0.2l-2.5-0.1l-0.3-0.8l-0.6-0.6l-0.6-0.3l-1.3-0.3l-1.6,0.2l-1.2-0.1l-2.4-1.3l-0.5-0.7V207l-2.9-0.9l-7.9,2l0,0l-1.4-2.6
		L534,204l-0.4-3.5l-0.2-4.6l-0.1-0.6l-0.3-0.4l-0.7-0.3v-0.8l1.3-1.7l0.1-1.1l-0.1-2.1L532.2,183.9z"/>
	<path id="Santa_Fe" class="st1" d="M595.2,263.8l0.3,0.4l-0.1,0.6l-1.7,2.4l-0.1,1.1l-0.6,1.4l-1.1,0.2l-1.4-1l-2.3-0.4l-0.9,0.3
		l-0.2,0.6l0.1,0.5l-10.1,11.4l-14.8,0.1l0,0l11.8-19.3l0.5-0.8h0.5l0.6-0.4l0.6-1.1l0.4-2.3l-0.1-0.6l-1.2-1.9l-1-3.2l-1.6-1.5
		l-0.4-1.6l-0.9-0.6l-1-1.1l0.1-3.3l-0.4-2.9l1.4-1.2l3.7-13.8l-2.1-0.8l-2.4-1.6l0.1-1.6h0.6l0.7-4.4l0,0l4.9-31.7l0,0H614l0,0
		l-0.4,1.4l-0.6,0.4l-1-0.5l-0.5,0.2l-0.4,0.6l0.1,3.6l-0.4,3l-1.5,5.9l-2.2,2.3l-1.6,0.7l-1.2,2.8l-0.1,3.1l-0.9,3.3l0.2,0.6
		l0.9,1.3l0.1,0.6l-1.3,3.7l0.2,1l0,0l0.9,1.4l0.1,2.4l-0.1,0.8l-2,3.5l-3.2,4.9l-0.6,0.4L597,236l-2.6,3l-1.1,1l-2,0.2l-0.5,0.1
		l-0.3,0.3l-0.8,6.3l0.4,2.5l-0.9,2.6l0.1,1.9l0.4,2.9l0.2,0.9l2,3.9l2.4,1.3L595.2,263.8z"/>
	<path id="San_Juan" class="st1" d="M466.6,249.3l-0.9-0.4l-0.4-3l0.6-0.6l0.6-0.1l0.4-1.1l-0.1-0.4l-0.9-0.9l-1.4-0.1l-0.6-0.7
		l-1.6-4.1l0.4-3.6l0.5-2.4l0.9-1l0.3,0.3l0.9-0.3l0.9-0.9l0.1-0.5l-0.5-0.6l-0.1-0.4l0.2-1.6l0.6-2.3l0.7-1.8l1-1.8l1.1-0.7h0.7
		l0.8-0.4l0.5-0.7l0.9-2v-0.7l-1.2-2.1l0.2-1.2l-0.1-2.9l-0.6-0.6l0.1-1.8l-0.9-2.7V204l1.6-2.2l0.9-0.1l0.6-0.6l0.1-1.1l0.9-3.2
		l-0.3-1.1V195l0.6-1.1l0.4-0.2l0.2-2.6l0,0l2.8,0.9l1.2,0.2l2.5,2.1l0.6,2.1l2.5,2.6l0.3,2.5l-0.1,0.9l-0.2,0.3l-0.4,0.1l-0.9,5.1
		l0.1,1.3l0.4,0.1l2-0.1l1.7-0.5l2.9,0.7l2,0.9l3.6,2.9l0.4,0.9l1.4,1.4l3.6,2.9l0.4,0.6l0.3,1.2l2.4,2.4l1.6,2.1l0.7,0.4l0.3,0.4
		l1.2,2.4l-0.6,2.1l0.9,0.7l-0.6,4.1l0.8,2.6l1.1,1.1l1.4,1l1,1.8l0.6,1.4l0,0l-3.1,0.2l-4.4-0.6l-0.8,0.1l-0.2,0.5l-0.1,2.4
		l0.1,4.2l0.4,1.1l0,0l-1.5-1.7l-1.2-0.4l-1.3,0.1l-2.1-0.4l-1.3-1.1l-0.4-0.9l-0.7-0.5l-2.6,0.6l-1.6-0.1l-1.2-0.4l-0.4,0.2
		l-0.2,1.1l-0.2,0.4l-0.9,0.1l-2.5-0.6l-1.5-0.9l-0.7-0.2l-1.1,0.1l-0.5-0.4l-0.9-1.3l-0.8-0.2l-0.9,0.6l-1.9,0.8l-0.6,0.1l-2,1
		l-0.4,0.5l-0.1,1.4l-0.4,0.4l-2.1,0.1l-1.9,0.6l-2.4-0.1L466.6,249.3z"/>
	<path id="San_Luis" class="st1" d="M503.9,250.7l-0.4-1.1l-0.1-4.2l0.1-2.5l0.2-0.5l0.8-0.1l4.4,0.6l3.1-0.2l0,0l0.9,0.1l1.1,0.5
		l2.8,0.3l1.7-0.1l1.6-0.7l1.1-0.2l1.1,0.5l0.8,0.1l1.4-0.3l0,0l1.6,0.1l4.2,2.6l0.8,0.9l0.7,3.2l1.8-0.1l1.5-0.4l0.4,0.4l0.5,3.6
		l-0.1,1l-1.6,5.8l-1.6,3.1l0.6,12.3V291l0,0v15.8h-19.8l0,0l-0.2-0.5l1.4-7.3l0.2-2.4V293l-0.4-3l-0.6-2l-1.9-3.2l-0.9-3.4L511,279
		l0.9-1.1l0.2-1.1l-0.3-1.2l-1.1-1.9l-0.8-0.6l-0.4-0.5L509,271l-2.2-4.4l-0.5-3.3l0.1-0.5l-0.2-3.1l-0.4-0.7l0.4-2.4l-0.6-1.5
		l-0.6-2.9l-0.4-1.1L503.9,250.7z"/>
	<path id="Tierra_del_fuego" class="st1" d="M494.7,657.5l-1.1-0.5l-1.2-0.2l-0.9,0.2l-0.3,0.4l-2.4,0.2l-0.5-0.2l-1.1-1.4l0.2-46.8
		l2.1,3.6l1.6,1.7l0.5,0.9l0.4,1.2l0.5,2.5v0.3h-0.2l-0.6-2.4l-0.5-0.2l-0.5,0.2l-2.3,2.6l-0.3,1.4l0.3,0.9l0.6,0.7l1.2,0.7l1.6,0.1
		l1.1-0.4l0.5,0.2l0.9,1.9l0.6,3.1l0.7,1.5l2.4,2.6l2.8,2.6v1.1l0.3,0.8l3.9,3.4l3.5,2.5l3.6,2.1l2.1,2.9l4,2.8l5.6,2.6l1.3,0.3
		l5.3-0.9h1l1,0.4l-1.3,3.6l-1.4,2.6l-0.4,0.1L529,659l-0.1-0.3l-1.1-0.2l-1.5,0.6L525,659l-0.3-0.4l-0.5-0.2l-1.6-0.1l-0.6,0.1
		l-0.9,1.3l-1.2,0.6l-0.9,0.4l-2.4-0.1l-0.9,1.5l-1.4-0.1l-1.1-0.4l-2.1-1.9l-2.8-0.9l-6.2-0.7l-2.9,0.2l-3.7-0.6L494.7,657.5z
		 M487.4,656.5l0.6,1.3l0.4,0.3l-0.6,0.4l-0.5-0.1L487.4,656.5z"/>
	<path id="Tucumán" class="st1" d="M532.2,183.9l-0.9,0.1l-1.4-0.9l-2.1,1.6l-0.8,1.2l-1.3-1.5l-0.4-1.9l-0.9-0.5l-0.5,0.3l-0.4-0.1
		l-1.2-2.1l-0.7-3.4l-1.4-1.2l-1.2-0.4l0.6-1.4l3.4-4.2l0.4-2.8l-0.2-0.6l-2-1.5l-2.5-0.7l-0.1-2.1l0.7-1.7l0.1-0.6l0,0l2.1,0.5
		l3.5,0.5l0.3-0.4l0.2-2.6l0.2-0.3l2.9,0.6l1.4-0.7l0.4,0.1l0.5,1.3l4.4,1.6l0.4-0.1l1.3-0.8l1.4,0.2l2.8-0.1l0,0l0.1,1.1l-0.6,1.9
		l0.4,3.4h-1.2l-0.6,1.7h-0.5l-1.9,5.6l-0.9,2l-0.6,0.1l-1.6,2l-0.1,2.4l0.9,2l-0.9,1.6L532.2,183.9z"/>
	<path id="Islas_Malvinas" class="st1" d="M595.1,571.8c0.3,0.1,0.4,0.1,0.4,0.4h0.1c0.2-0.4-0.6-1.3-0.9-0.9
		C594.8,571.5,594.9,571.6,595.1,571.8z M598.4,571.7c0.4,0.4,0.7,0.5,1.1,0.7c0.3,0.1,0.6,0.3,0.8,0.6c-0.6,0.6-0.6,0-1.1-0.3
		c-0.4,0.1-0.8,0.1-1,0.5v0.3c0.4,0.5,0.9,0.2,1.4,0.1c0.2,0.1,0.4,0.2,0.6,0.3c0.3-0.4,0.4-0.9,0.8-1.1c0-0.3-0.2-0.6-0.3-0.9
		c-0.5-0.2-1.1,0.2-1.6,0.1c-0.1-0.1-0.3-0.1-0.4-0.2c-0.2-0.1-0.2-0.4-0.4-0.6h-0.2l-0.1,0.1C598.2,571.4,598.3,571.6,598.4,571.7z
		 M587.8,581.6l0.1-0.1c-0.1-0.1-0.1-0.4-0.4-0.4l-0.1,0.1c-0.1,0.2-0.1,0.4-0.2,0.6c-0.1-0.2-0.6-0.4-0.8-0.1
		c0.2,0.3,0.4,0.5,0.8,0.7h0.4l0.3-0.4c-0.1,0.1-0.4,0.1-0.5,0v-0.1L587.8,581.6z M601.7,572.4c0.3,0.3,0.8,0.6,1.1,0.1l-0.1-0.2
		v-0.1c0.1,0,0.1-0.1,0.2-0.1c-0.2-0.1-0.4-0.2-0.6-0.3c-0.3-0.1-0.6,0.1-0.8,0.1C601.4,572,601.6,572.2,601.7,572.4z M603.9,571.4
		c0.6,0.4,1.4,0.1,1.9,0.4c0.4,0.1,0.4,0.4,0.6,0.7c0.3,0.5,1.1-0.1,1.5-0.1c-0.1-0.4-0.1-0.7-0.4-1c-0.4-0.5-0.6,0.2-0.8,0.4h-0.1
		c-0.1-0.1-0.2-0.4-0.2-0.6c-0.4-0.1-0.9,0.1-1.2,0.1c-0.4,0-0.6-0.3-0.9-0.4c-0.1,0.1-0.3,0.1-0.4,0.1l-0.1,0.1
		C603.9,571.2,603.9,571.3,603.9,571.4z M604.1,573.2c0.3-0.1,0.5-0.1,0.7,0l-0.2,0.2l-0.1,0.3l0.4,0.2c0.5,0,0.9-0.4,1.4-0.6
		l-0.1-0.2c-0.3,0-0.5-0.1-0.7-0.2l-0.1-0.3l-0.3-0.1v0.4c-0.3-0.1-0.5-0.6-0.9-0.6l-0.1,0.4c-0.2,0-0.4,0.1-0.6,0.1
		c0,0.1,0.1,0.1,0.1,0.2L604.1,573.2z M589.6,583.8c0.6,0.3,0.8,0.2,1.4,0.1c0.5-0.1,0.4-0.4,0.6-0.8h-0.5c0.3-0.6,0.2-1.1,0.5-1.6
		c0.1-0.3,0.3-0.7,0.1-1h-0.1c-0.1,0.1-0.2,0.2-0.3,0.4c0.1,0.1,0.1,0.1,0.1,0.1c0.4,0.9-1.1,1.4-1.6,1.5l-0.1-0.1
		c0.1-0.6,1.1-0.6,1.1-1.2c-0.1-0.2-0.5-0.6-0.7-0.5c-0.4,0.1-0.4,0.8-0.7,0.9c-0.5-0.1-0.7,0-1,0.4c0.5,0.1,0.5,0.5,0.4,0.9h0.1
		c0.1,0.2,0.4,0.1,0.6,0.3c0.1,0.1,0.1,0.3,0.1,0.4h0.1C589.6,583.6,589.6,583.7,589.6,583.8z M605.4,591.8l-0.4,0.1l-0.3-0.1
		c0.1-0.2,0.2-0.4,0.4-0.5V591l0.3-0.1l-0.1-0.2c-0.3,0-0.4,0-0.7,0.1l-0.2,0.4l0.1,0.2c-0.3,0.1-0.4,0.2-0.6,0.4
		c0.1,0.1,0.4,0.2,0.4,0.4l0.3-0.1c0.2,0.2,0.5,0.4,0.8,0.5c0.1-0.4,0.8-0.6,0.5-1L605.4,591.8z M605.2,588.5
		c0.1-0.2,0.1-0.3-0.1-0.5c-0.3-0.1-0.6,0-0.8,0c-0.1-0.2-0.1-0.5-0.3-0.6c-0.1,0.3-0.1,0.4,0,0.7c0.3,0.3,0.6,0.4,0.5,0.9
		c0,0.2-0.1,0.5-0.3,0.7c0.1,0.1,0.1,0.3,0.1,0.5h0.1c0.1-0.6,0.9-0.5,0.8-1.1L605,589C605.2,588.8,605.2,588.6,605.2,588.5
		C605.3,588.5,605.2,588.6,605.2,588.5z M620,584.8L620,584.8L620,584.8l-0.1,0.1l-0.1,0.1c-0.1,0-0.1,0-0.1,0
		c-0.1-0.1-0.2-0.3-0.4-0.2l-0.1,0.1l0.1,0.1c-0.3,0.1-0.6,0.2-0.8,0.5c0.1,0.3,0.3,0.4,0.4,0.7c0.2,0.1,0.5,0.4,0.8,0.4v0.1
		l-0.1,0.1l0.1,0.1l0.2,0.1l0.1-0.1c-0.1-0.1,0-0.3-0.1-0.4c-0.1-0.3-0.1-0.5-0.1-0.8c-0.1,0.1-0.1,0.1-0.2,0.1l-0.1-0.1v-0.1h0.1
		l0.1-0.1c-0.1-0.1-0.1-0.1-0.1-0.3c0.1,0,0.3,0.1,0.4,0.1c0.1-0.1,0-0.2,0.1-0.3l0,0L620,584.8z M604.9,584.6
		C605,584.6,605,584.6,604.9,584.6c0.1,0.1,0.2,0.1,0.2,0.2c0.1,0,0.1-0.1,0.2-0.1c0-0.2-0.1-0.3-0.2-0.5c0-0.1,0.1-0.2,0-0.3
		l-0.1-0.1C604.8,583.9,604.9,584.2,604.9,584.6L604.9,584.6z M627.6,579c-0.3,0-0.5,0.2-0.8,0.2c-0.3,0-0.6-0.1-0.9-0.2v-0.1
		c0.5-0.1,1.2-0.1,1.5-0.6l-0.1-0.4c-0.7-0.5-1.5-0.3-2.2-0.7c-0.5,0.1-0.8,0.2-1.2,0c-0.4-0.1-0.6-0.4-0.8-0.7l0.7-0.4l0.6,0.3
		l-0.1-0.4l0.1-0.1c0.5,0.1,0.8,0.6,1.3,0.6c0.5,0.1,1.2,0.4,1.6,0.1l0.1-0.2l-0.1-0.1H627c0.1-0.3,0.4-0.3,0.4-0.5
		c-0.7-0.1-1.1-1.1-1.3-1.7c-0.2-0.9-1.1-0.4-1.7-0.4c-0.5,0.1-1,0.1-1.5,0.1c-0.4,0-0.8,0-1.1,0.2c-0.3,0.3-0.5,0.4-0.6,0.8
		c-0.1,0.4-0.6,0.8-0.6,1.1c0.1,0.1,0.4,0.1,0.5-0.1c0.1-0.1,0-0.3,0.1-0.4c0.2,0.3,0.1,0.6,0.3,0.9h0.1l0.4-0.1l0.1,0.1l0.1,0.2
		c-0.1,0.1-0.3,0.2-0.4,0.4l0.1,0.2c0.2,0.1,0.4,0.1,0.6,0.3l0.1,0.4c-0.2-0.1-0.4-0.4-0.7-0.4l-0.1,0.2c0.1,0.2,0.4,0.5,0.4,0.8
		l-0.2,0.1c-0.8-0.4-0.3-1.6-1.1-1.9c-0.1,0.2-0.2,0.3-0.4,0.3l-0.1-0.1c-0.1-0.1-0.1-0.3-0.1-0.4l-0.1,0.1c0,0.1-0.1,0.2-0.3,0.2
		c-0.2-0.4,0.1-0.9,0-1.4h-0.3l-0.7,0.4l-0.1-0.1c0.1-0.4,0.2-0.8,0.1-1.1h-0.4c0.1-0.3,0.4-0.7,0.7-0.7c0.3,0.2,0.3,0.7,0.5,1
		c0.4,0.2,0.9-0.1,1.3-0.4c0.2-0.5-0.1-1.1-0.4-1.4c-0.4-0.4-0.7-0.5-1.1-0.8c-0.4-0.3-1.5-0.1-1.8,0.4c0.1,0.1,0.1,0.2,0.1,0.4
		c-0.1,0-0.3-0.1-0.4-0.2c-0.2-0.1-0.4-0.1-0.6-0.1c-0.6-0.1-1.1-0.5-1.7-0.8c-0.2-0.1-0.5-0.1-0.7-0.3c-0.1-0.2-0.3-0.4-0.6-0.5
		c0.1,0.5,0.2,0.6,0.5,1c0.1,0.3,0.5,0.7,0.5,1.1c-0.1,0.6-0.9,0.5-1.4,0.5c-0.2,0.6-0.6,0.8-1.1,0.4c-0.3,0.1-0.4,0.6-0.5,0.9
		c0.6,0.4,1.1,0.5,1.6,0.9l-0.4-0.1l-0.1,0.2c0.1,0.4,0.1,0.6,0.4,0.9l-0.2,0.5c-0.4-0.4-0.6-1-0.9-1.5c-0.1,0.3-0.1,0.6-0.3,0.8
		c-0.4,0.4-0.5,0.6-0.1,1c0.4,0.4,1.3,0.9,1.8,0.9c0.1,0.1,0.1,0.2,0,0.4c-0.1,0-0.1,0.1-0.2,0.1l-0.1,0.1l-0.1,0.4
		c0.1,0.1,0.1,0.3,0.3,0.4c0,0.3-0.1,0.4,0,0.7c0.1,0.4,0.4,0.6,0.1,1c-0.2,0.1-0.4,0.1-0.6,0.3c0.1-0.1,0.1-0.4,0.1-0.5
		c-0.1-0.3,0-0.4,0.1-0.7c0-0.2-0.1-0.4-0.2-0.6c0-0.2,0.1-0.4-0.1-0.6c-0.3-0.1-0.7,0.1-1,0.1c-0.3,0.1-0.4,0.4-0.6,0.5l-0.2-0.3
		l-1.1,0.8c0,0.2,0.1,0.4,0.2,0.6c-0.2,0.1-0.4,0.1-0.6,0.1l-0.2-0.2c-0.1,0.4-0.1,0.8-0.3,1.1l-0.2-0.2c-0.4,0.1-0.8,0.2-1.1,0.4
		l0.1,0.1c0.1,0.1,0.1,0.3,0,0.4c-0.1,0.1-0.4,0.1-0.5,0.1l-0.1,0.2c0.1,0.3,0.5,0.4,0.6,0.7l-0.2,0.2c-0.4-0.1-0.9-0.7-1.4-0.3v0.4
		c0.3,0.2,0.6,0.3,0.9,0.4v0.1c-0.2,0.1-0.6,0.1-0.8,0.3c0.1,0.1,0.3,0.4,0.4,0.6c-0.3,0.1-0.6,0.1-0.7-0.2H606
		c-0.3,0.4,0.3,0.9,0.6,1l-0.1,0.3c-0.2,0.2-0.4,0.2-0.7,0.2l0.1,0.3v0.2l-0.1,0.1h-0.2c-0.2-0.1-0.4-0.4-0.6-0.5l-0.1,0.1
		c-0.1,0.5,0.5,0.8,0.8,1.1c0.3,0.4,0.3,0.4,0.4,0.9l0.1,0.1l0.4-0.1l0.2,0.1l-0.3,0.3v0.2c0.4,0.4,0.9,0.1,1.1,0.6l-0.1,0.4
		c0.3,0.3,0.6,0.2,0.9,0.4c0.4,0.2,0.5,0.6,0.9,0.7l0.1-0.4c-0.1-0.1-0.3-0.2-0.4-0.4l-0.1-0.1c0.1-0.4,0.4-0.6,0.3-1
		c-0.1-0.4-0.6-0.4-0.9-0.5l-0.1-0.1c0-0.1,0.1-0.4,0.2-0.4c-0.2-0.3-0.4-0.5-0.5-0.9l0.3-0.2c0.1,0.1,0.2,0.4,0.4,0.4
		c0.1-0.2,0-1,0.4-0.8l0.4,0.6l0.2-0.1c0.1,0.3,0.4,0.2,0.6,0.4c0.3,0.2,0.1,0.6,0.5,0.9c0.2,0.1,0.4,0,0.6,0
		c0.4,0.1,0.7,0.6,1.2,0.4l0.1-0.3c-0.1-0.3-0.4-0.4-0.6-0.7c0.2-0.1,0.6-0.3,0.7-0.5V588c-0.4,0-0.7,0.3-1.1,0.3l-0.1-0.1
		c0.1-0.6,0.6-0.4,0.9-0.9c-0.2-0.2-0.5-0.1-0.8-0.1l0.4-0.5l-0.2-0.1c-0.2,0-0.4,0.1-0.6,0.1c-0.2-0.2,0-0.6-0.3-0.8
		c-0.1-0.1-0.4-0.1-0.6-0.1l-0.4,0.2l-0.1-0.1l-0.1-0.2c0.1-0.1,0.3-0.3,0.5-0.4c0.2,0,0.4,0.3,0.6,0.4c0.5,0.1,0.4-0.4,0.8-0.4
		c0.3,0.1,0.4,0.6,0.7,0.6l0.2-0.1l0.1,0.4c0.1,0,0.3,0,0.4-0.1l0.2,0.1c0.1,0.3,0.1,0.6,0.3,0.8l0.2-0.3c0.1,0.3,0.1,0.6,0.3,0.9
		c0.3-0.1,0.7-0.4,0.9-0.7c0-0.1-0.1-0.3-0.1-0.4l0.1-0.1c0.1,0.1,0.3,0.1,0.5,0.1c0.1-0.1,0.1-0.1,0.1-0.2c0.1,0.1,0.1,0.1,0.2,0.2
		c0.3,0.1,0.4,0.1,0.6,0.4c0.2,0.3,0.3,0.8,0.6,0.9h0.2l0.1-0.1c0-0.4,0-1.1-0.4-1.4c0.2-0.3,0.5-0.4,0.8-0.6l-0.3-0.3V585
		c-0.4-0.3-0.6-0.4-1.1-0.4c-0.4,0-0.6,0.3-1,0.1l0.1-0.4c-0.1-0.2-0.2-0.4-0.4-0.5c-0.4-0.3-1-0.4-1.3-0.6
		c-0.4-0.4-0.6-1.1,0.1-1.4l0.1,0.1c0.3,0.8,0.6,0.8,1.4,1.2c0.2,0.1,0.4,0.4,0.6,0.5c0.2,0.1,0.5,0,0.7,0c0.4,0,0.7,0,1.1,0
		c0.2,0,0.4-0.1,0.6-0.1c0.6-0.1,1.1,0.1,1.6,0.1c0.6-0.2,1.1-0.7,1.6-0.9c0.4-0.1,0.9-0.3,1.1-0.6c-0.4,0-0.6-0.1-0.9,0.1
		c-0.4,0.1-0.6,0.4-1,0.1c0.5,0.1,0.7-0.4,1.1-0.5c0.4-0.1,0.9,0.1,1.3-0.1v-0.1c-0.2,0-0.4,0-0.6-0.1c-0.3,0-0.5-0.3-0.8-0.4V581
		c0.5,0,1.1,0.1,1.6,0.1c0.5-0.1,1.5,0,1.9-0.4v-0.1c0.3-0.1,0.8-0.1,1.1-0.1c0.1-0.1,0.3-0.1,0.4-0.2c0.4-0.1,0.6-0.4,1.1-0.4v-0.1
		L627.6,579z M605.6,580.5c0.2-0.3,0.4-0.5,0.6-0.9c0.2-0.4,0.7-0.8,0.7-1.2h-0.3l0.6-0.6l0.1,0.1c0.2-0.1,0.4-0.4,0.6-0.6
		c-0.1,0.2-0.1,0.4,0,0.6l0.1,0.1c0.2-0.1,0.6-0.5,0.7-0.8c0-0.4,0.1-0.6,0.4-1V576c-0.1,0-0.2,0.1-0.4,0.1c0.1-0.2,0.1-0.4,0.1-0.6
		c0.1-0.1,0.1-0.1,0.3-0.1l0.1,0.1l0.1,0.2c0.4-0.4,0.6-0.8,1.1-1c-0.2-0.1-0.4,0.1-0.5,0c-0.1-0.2,0-0.4,0.1-0.6
		c0.2-0.1,0.5-0.1,0.7-0.1c-0.4-0.7-1.6-0.5-1.9-1.3c-0.1-0.1-0.4-0.1-0.6-0.1c0,0.1,0.1,0.3,0.1,0.4c-0.1,0-0.3,0-0.4,0
		c0,0.2-0.1,0.7,0.1,0.9c0.2,0.1,0.4,0.3,0.5,0.5c-0.4,0.1-0.8,0.4-1.1,0.4c-0.4,0.1-0.7-0.1-1.1-0.3c0.2-0.1,1.1-0.6,1.1-0.9
		c-0.2,0-0.3,0.1-0.4,0.2c-0.3,0.3-0.6,0.3-1,0.4c-0.7,0.2-1.4,0.4-2.2,0.4l-0.4-0.4c0.3,0,0.6,0,0.8-0.1c-0.4-0.2-0.9-0.3-1.4-0.4
		c0.1-0.1,0.1-0.2,0.1-0.3v-0.1l-0.4-0.1c-0.4,0.2-0.7,0.4-1.1,0.8c0-0.2-0.1-0.6-0.3-0.7c-0.1,0.1-0.2,0.4-0.4,0.6
		c-0.2,0.2-0.3,0.4-0.4,0.7l0.8,0.1l0.3,0.4c-0.6,0.1-1.1,0.2-1.6,0.3c-0.4,0.1-0.9-0.1-1.3-0.1c-0.6-0.1-1.1-0.6-1.4-0.9
		c-0.9-0.7-1.9-0.9-2.8-1.6c-0.1,0.1-0.3,0.1-0.5,0.1c0.1,0.3,0.2,0.5,0.2,0.8c0,0.2,0.1,0.3,0.2,0.4c0.2,0.1,0.5,0.3,0.8,0.3
		c0.5,0.1,0.9,0,1.4,0.3c0.2,0.1,0.3,0.4,0.4,0.6l-0.1,0.1c-0.4-0.1-0.8-0.1-1.2-0.1l-0.1,0.1c0.1,0.7,0.4,0.8,1,1.1
		c0.4,0.2,0.9,0.5,1.3,0.5c0.4,0.6,0.9,0.8,1.3,1.3c0.5,0.6,1.1,0.3,1.5,1c-0.7-0.1-0.9-0.2-1.4-0.7c-0.4-0.1-0.8,0.3-1.1,0.3
		c-0.6-0.1-0.9-0.1-1.4,0.2c-0.4,0.3-0.6,0.4-1,0.3c-0.3-0.1-0.6-0.1-0.9-0.3c-0.2-0.1-0.4-0.3-0.6-0.3c-0.2,0.4-0.3,0.8,0,1.1
		c0.1,0.2,0.3,0.2,0.5,0.4c0.3,0.2,0.2,0.9,0.6,0.7c0.3-0.4,0.3-0.5,0.8-0.5c0.3,0,0.6-0.2,0.8-0.4c0.1,0,0.1,0,0.2,0.1h0.1
		c0.1-0.2,0.1-0.4,0-0.6c0.3-0.1,0.6-0.1,0.9,0c0.5,0.1,0.7-0.4,1.2-0.1c0,0.4,0.1,1.5-0.6,1.4l-0.1-0.2c-0.1,0.1-0.2,0.1-0.3,0.1
		c-0.1-0.1-0.1-0.4-0.2-0.5c-0.6-0.1-0.4,1.1-0.2,1.4h-0.2c-0.2,0.1-0.3,0.4-0.3,0.6c-0.3-0.3-0.5-0.3-0.4-0.6
		c0.1-0.2,0.2-0.4,0.1-0.6c-0.1,0-0.4,0.1-0.5,0.1c0.1-0.1,0.3-0.3,0.4-0.5c-0.4-0.2-0.8,0.1-0.9,0.4c-0.1,0.4,0,0.8,0,1.1
		c0,0.2-0.1,0.3,0.1,0.5c-0.2,0.2-0.3,0.4-0.4,0.6c-0.2,0.1-0.4,0.3-0.6,0.3c-0.3,0-0.6-0.1-0.9-0.1c0.4,0.2,0.6,0.4,1.1,0.3
		c0.1,0,0.4-0.1,0.6-0.2c0.2-0.2,0.6-0.7,0.8-0.3c-0.4,0.7-0.7,1.1-1.6,1.1v0.1l0.1,0.1l-0.1,0.2H595c-0.3-0.4-0.6-0.5-1.1-0.5
		c-0.3,0.4-0.4,0.1-0.4-0.2c-0.1,0.1-0.1,0.4-0.3,0.4l-0.2-0.4c-0.5-0.1-1-0.1-1.5-0.1l0.2,0.5c0.3,0.2,0.6,0.2,0.9,0.4v0.1
		c-0.5,0.2-0.9,0.3-1.5,0.4l0.1,0.6H591c-0.1-0.1,0-0.4-0.1-0.6c-0.1-0.1-0.2-0.1-0.4-0.1c-0.3,0-0.4-0.1-0.7-0.2
		c-0.6-0.2-0.6,0-0.6,0.5l0.1,0.2c0.3,0.1,0.5,0.1,0.7,0.3c0.3,0.5,0.5,0.7,1.1,0.8c0.3,0.4,0.5,0.7,0.8,1.1c0.3,0.1,0.6,0.1,0.9,0
		c-0.1-0.3-0.3-0.6-0.4-0.8c-0.2-0.2-0.6-0.1-0.7-0.4l0.1-0.1c0.4-0.1,1.2-0.1,1.5,0.1c0,0.2-0.1,0.4-0.3,0.4
		c0.1,0.5,0.5,0.9,0.9,1.1c-0.1,0-0.1,0.1-0.1,0.1c-0.1,0-0.2-0.1-0.4-0.1l0.4,0.7l0.6,0.1c0.5-0.3,0.8-0.5,1.1-0.9
		c-0.1-0.5-0.2-0.9-0.7-1.1c-0.1-0.1-0.1-0.2,0.1-0.4h0.1c0.1,0.1,0.2,0.2,0.4,0.3c0.1,0.1,0.5,0.9,0.7,0.7c0-0.1,0-0.2,0-0.3H596
		h0.3c0.2,0.1,0.4,0.3,0.6,0.3c0.7-0.6,1.5-1.4,1.1-2.4c-0.3-0.8,0.4-1,0.9-1.2c-0.1,0.2-0.3,0.3-0.3,0.5l0.1,0.1
		c0.1,0,0.3-0.1,0.4-0.1l1,0.1l0.2-0.1c0.1-0.4-0.3-0.7,0.1-0.9h0.1c0,0.4,0.3,0.4,0.6,0.4c0.1,0.2,0.1,0.4,0.1,0.6
		c0.2-0.1,0.5-0.4,0.7-0.6c0.6-0.3,0.6-0.1,0.9-0.8C603.9,582.3,604.7,581.3,605.6,580.5z M587.3,578.9c-0.8-0.1-1.1,1.1-0.4,1.4
		c0-0.3-0.1-0.7,0.1-0.9c0.2-0.1,0.4-0.1,0.6-0.1l0.2-0.1C587.6,579.1,587.5,579.1,587.3,578.9z"/>
</g>
</svg>
